<svg width="24" height="25" viewBox="0 0 24 25" fill="none" xmlns="http://www.w3.org/2000/svg">
<path d="M19.903 9.08606C19.8555 8.97756 19.7892 8.87835 19.707 8.79306L13.707 2.79306C13.6217 2.71089 13.5225 2.64453 13.414 2.59706C13.384 2.58306 13.352 2.57506 13.32 2.56406C13.2363 2.53569 13.1492 2.51854 13.061 2.51306C13.04 2.51106 13.021 2.50006 13 2.50006H6C4.897 2.50006 4 3.39706 4 4.50006V20.5001C4 21.6031 4.897 22.5001 6 22.5001H18C19.103 22.5001 20 21.6031 20 20.5001V9.50006C20 9.47906 19.989 9.46006 19.987 9.43806C19.9815 9.34985 19.9644 9.26276 19.936 9.17906C19.9267 9.14706 19.9157 9.11606 19.903 9.08606ZM16.586 8.50006H14V5.91406L16.586 8.50006ZM6 20.5001V4.50006H12V9.50006C12 9.76528 12.1054 10.0196 12.2929 10.2072C12.4804 10.3947 12.7348 10.5001 13 10.5001H18L18.002 20.5001H6Z" fill="black"/>
<path d="M8 12.5001H16V14.5001H8V12.5001ZM8 16.5001H16V18.5001H8V16.5001ZM8 8.50006H10V10.5001H8V8.50006Z" fill="black"/>
</svg>
