<svg width="20" height="20" viewBox="0 0 20 20" fill="none" xmlns="http://www.w3.org/2000/svg">
<path d="M4.44444 4.55554H13.3333V5.44443H4.44444V4.55554ZM4.44444 8.99999H8.93666V9.88888H4.44444V8.99999ZM12.9878 6.77776H4.44444V7.66665H12.0994L12.9878 6.77776ZM7.10777 16.1511C7.25714 16.3224 7.44672 16.4539 7.65946 16.5338C7.87221 16.6137 8.10147 16.6395 8.32666 16.6089H12.6622C12.7654 16.6089 12.8643 16.5679 12.9372 16.495C13.0101 16.422 13.0511 16.3231 13.0511 16.22C13.0511 16.1168 13.0101 16.0179 12.9372 15.945C12.8643 15.8721 12.7654 15.8311 12.6622 15.8311H8.32666C7.82055 15.8222 7.91055 15.3828 7.98166 15.2467C8.07417 15.0868 8.14639 14.916 8.19666 14.7383C8.23018 14.5953 8.21466 14.4451 8.1526 14.3119C8.09054 14.1787 7.98554 14.0702 7.85444 14.0039C7.64411 13.9092 7.40858 13.8861 7.18385 13.9379C6.95911 13.9898 6.75756 14.1138 6.60999 14.2911C6.41888 14.4883 6.15333 14.79 5.89888 15.0833C6.0561 14.4672 6.25999 13.6767 6.45999 12.9055C6.5173 12.7298 6.50589 12.5389 6.42806 12.3713C6.35023 12.2037 6.21176 12.0718 6.04055 12.0022C5.85094 11.9372 5.64372 11.9464 5.4607 12.0282C5.27768 12.11 5.13249 12.2581 5.05444 12.4428C4.81444 12.9044 2.91444 16.0883 2.89555 16.1205C2.86936 16.1644 2.85206 16.213 2.84464 16.2635C2.83722 16.314 2.83983 16.3655 2.85231 16.4151C2.87753 16.5151 2.94144 16.601 3.02999 16.6539C3.11854 16.7068 3.22448 16.7223 3.3245 16.6971C3.42452 16.6719 3.51043 16.608 3.56333 16.5194C3.63444 16.4 5.1511 13.8594 5.62944 13.0111C5.26944 14.4 4.87277 15.9455 4.84944 16.0844C4.82327 16.1865 4.83119 16.2944 4.87202 16.3916C4.91284 16.4888 4.98431 16.57 5.07555 16.6228C5.17724 16.6732 5.29283 16.6883 5.40409 16.6658C5.51535 16.6433 5.61593 16.5844 5.68999 16.4983C5.75999 16.435 5.8911 16.2844 6.22166 15.9005C6.52963 15.5383 6.84507 15.1825 7.16777 14.8333C7.28888 14.7055 7.36221 14.7622 7.2911 14.8878C7.15195 15.0635 7.06171 15.2729 7.02951 15.4948C6.99732 15.7166 7.02432 15.943 7.10777 16.1511Z" fill="black"/>
<path d="M15.5556 12.0528V17.7778H2.22223V2.22223H15.5556V4.99611L16.2944 4.25723C16.4082 4.14503 16.5329 4.04453 16.6667 3.95723V1.66667C16.6667 1.51933 16.6081 1.37802 16.504 1.27383C16.3998 1.16965 16.2585 1.11111 16.1111 1.11111H1.66667C1.51933 1.11111 1.37802 1.16965 1.27383 1.27383C1.16965 1.37802 1.11111 1.51933 1.11111 1.66667V18.3333C1.11111 18.4807 1.16965 18.622 1.27383 18.7262C1.37802 18.8304 1.51933 18.8889 1.66667 18.8889H16.1111C16.2585 18.8889 16.3998 18.8304 16.504 18.7262C16.6081 18.622 16.6667 18.4807 16.6667 18.3333V11.9039C16.3261 12.0849 15.9318 12.1378 15.5556 12.0528Z" fill="black"/>
<path d="M18.96 6.58945L18.6695 6.2989C18.8178 6.10257 18.8928 5.86061 18.8816 5.61482C18.8705 5.36904 18.7738 5.13487 18.6083 4.95279C18.3933 4.76325 18.1121 4.66636 17.8259 4.68322C17.5398 4.70007 17.2719 4.82931 17.0806 5.04279L10.1222 12L9.65724 13.7456C9.64988 13.7684 9.64898 13.7928 9.65465 13.8162C9.66032 13.8395 9.67233 13.8608 9.68936 13.8777C9.70638 13.8946 9.72776 13.9065 9.75111 13.912C9.77447 13.9175 9.79889 13.9164 9.82168 13.9089L11.5611 13.4383L18.0567 6.94279L18.3311 7.21779C18.3504 7.23689 18.3656 7.25961 18.376 7.28464C18.3865 7.30967 18.3918 7.33651 18.3918 7.36362C18.3918 7.39073 18.3865 7.41757 18.376 7.4426C18.3656 7.46763 18.3504 7.49035 18.3311 7.50945L15.5995 10.2411C15.5161 10.3245 15.4694 10.4376 15.4694 10.5555C15.4695 10.6734 15.5163 10.7864 15.5997 10.8697C15.6831 10.9531 15.7962 10.9998 15.9141 10.9998C16.032 10.9997 16.145 10.9528 16.2283 10.8695L18.96 8.13779C19.0618 8.03614 19.1426 7.91542 19.1977 7.78253C19.2528 7.64964 19.2811 7.5072 19.2811 7.36334C19.2811 7.21949 19.2528 7.07704 19.1977 6.94415C19.1426 6.81127 19.0618 6.69055 18.96 6.5889" fill="black"/>
</svg>
