<svg width="22" height="22" viewBox="0 0 22 22" fill="none" xmlns="http://www.w3.org/2000/svg">
<g clip-path="url(#clip0_1_26)">
<path d="M9.32961 0.597168C9.52237 0.5972 9.67037 0.658643 9.80226 0.790527L14.7583 5.74756C14.89 5.87933 14.9516 6.02671 14.9517 6.21924C14.9517 6.26564 14.9436 6.31589 14.9243 6.37158C14.8926 6.4632 14.8643 6.53173 14.8403 6.57959C14.8295 6.60106 14.7958 6.65488 14.7183 6.74658C14.6302 6.85064 14.5742 6.91212 14.5454 6.94092C14.5114 6.97496 14.4379 7.04407 14.3159 7.15381C14.2108 7.24846 14.1313 7.32116 14.0903 7.36084C13.932 7.50859 13.7754 7.56592 13.605 7.56592C13.5485 7.56589 13.5074 7.56147 13.479 7.55615C13.4618 7.55292 13.4351 7.54583 13.3989 7.52881C13.3416 7.50185 13.289 7.47799 13.2427 7.4585C13.2399 7.4563 13.236 7.45415 13.2319 7.45068C13.2237 7.44362 13.2129 7.43383 13.2007 7.42236C13.1699 7.39335 13.1353 7.36102 13.1001 7.33057L12.9956 7.24951L13.0181 7.26514C13.0207 7.26724 13.0225 7.26869 13.023 7.26904C13.0217 7.26799 13.0167 7.26339 13.0073 7.25439C12.9885 7.23626 12.9603 7.20826 12.9224 7.16846L12.7681 7.0083L12.0611 7.71533C12.0744 7.72867 12.0792 7.73637 12.0806 7.73975C12.082 7.74307 12.0855 7.75345 12.0855 7.7749C12.0854 7.79609 12.0819 7.80577 12.0806 7.80908C12.0792 7.81233 12.0747 7.82087 12.0611 7.83447L10.1773 9.71826L13.6402 13.1812L13.9946 13.5347L14.3482 13.1812C14.6175 12.912 14.884 12.8052 15.1607 12.8052C15.4488 12.8052 15.6951 12.9031 15.9214 13.1177L20.313 17.5093L20.3882 17.5952C20.5504 17.7979 20.6245 18.018 20.6245 18.27C20.6245 18.5686 20.5263 18.8057 20.3218 19.0103L20.3198 19.0112L19.023 20.3198C18.7988 20.5293 18.555 20.6245 18.27 20.6245C17.9716 20.6245 17.7343 20.5263 17.5298 20.3218L13.1216 15.9009L13.1167 15.896L13.1109 15.8911L13.0396 15.8159C12.8833 15.6376 12.8052 15.4273 12.8052 15.1606C12.8052 14.884 12.912 14.6175 13.1812 14.3481L13.5347 13.9946L13.1812 13.6401L9.71828 10.1772L7.83449 12.061C7.82089 12.0746 7.81234 12.0792 7.8091 12.0806C7.80579 12.0819 7.79611 12.0854 7.77492 12.0854C7.75347 12.0854 7.74309 12.0819 7.73976 12.0806L7.71535 12.061L7.00832 12.7681C7.02993 12.7897 7.08594 12.8438 7.16847 12.9224C7.20828 12.9603 7.23627 12.9885 7.25441 13.0073C7.26341 13.0167 7.268 13.0217 7.26906 13.0229C7.2687 13.0225 7.26725 13.0207 7.26515 13.0181C7.26264 13.0149 7.257 13.0068 7.24953 12.9956C7.29318 13.0611 7.36415 13.1388 7.42238 13.2007C7.43385 13.2129 7.44364 13.2236 7.4507 13.2319C7.45417 13.236 7.45632 13.2399 7.45851 13.2427C7.478 13.2889 7.50186 13.3416 7.52882 13.3989C7.54585 13.4351 7.55294 13.4618 7.55617 13.479C7.56149 13.5074 7.56591 13.5485 7.56593 13.605C7.56593 13.773 7.50994 13.9274 7.36671 14.0835C7.32868 14.1222 7.25371 14.2049 7.15382 14.3159C7.04408 14.4378 6.97498 14.5114 6.94093 14.5454C6.91214 14.5742 6.85066 14.6302 6.7466 14.7183C6.65489 14.7958 6.60108 14.8295 6.57961 14.8403C6.53174 14.8643 6.46322 14.8926 6.3716 14.9243C6.31591 14.9436 6.26565 14.9517 6.21925 14.9517C6.02672 14.9516 5.87934 14.89 5.74757 14.7583L0.790543 9.80225C0.658658 9.67036 0.597215 9.52236 0.597183 9.32959C0.597183 9.28316 0.605233 9.23299 0.624527 9.17725C0.656207 9.08572 0.684599 9.01806 0.708511 8.97021C0.719086 8.94907 0.753112 8.89495 0.831558 8.80225C0.919563 8.69824 0.974648 8.6367 1.00343 8.60791C1.0375 8.57385 1.11188 8.50484 1.2339 8.39502C1.33846 8.30092 1.41644 8.22773 1.45753 8.18799L1.45851 8.18896C1.61697 8.04107 1.77341 7.98291 1.94386 7.98291C2.00033 7.98292 2.04144 7.98737 2.06984 7.99268C2.08703 7.9959 2.11379 8.00303 2.14992 8.02002C2.20572 8.04628 2.25785 8.06819 2.30324 8.0874C2.30642 8.08986 2.31077 8.09389 2.31691 8.09912C2.32519 8.10618 2.33598 8.115 2.34816 8.12646C2.41008 8.18474 2.48767 8.25658 2.55324 8.30029L2.53078 8.28369C2.52773 8.28128 2.52589 8.27979 2.52589 8.27979C2.52706 8.2808 2.53209 8.28537 2.54152 8.29443C2.56038 8.31257 2.58841 8.3404 2.62648 8.38037C2.7052 8.46303 2.75913 8.51986 2.78078 8.5415L3.48781 7.83447C3.47456 7.82123 3.47069 7.8125 3.46925 7.80908C3.46789 7.80578 3.46441 7.79609 3.46437 7.7749C3.46437 7.75345 3.46788 7.74307 3.46925 7.73975C3.47075 7.73623 3.47486 7.72829 3.48781 7.71533L7.71535 3.48779C7.72831 3.47485 7.73624 3.47074 7.73976 3.46924C7.74309 3.46787 7.75347 3.46436 7.77492 3.46436C7.79611 3.4644 7.80579 3.46788 7.8091 3.46924C7.81251 3.47067 7.82124 3.47455 7.83449 3.48779L8.54152 2.78076C8.51988 2.75912 8.46305 2.70519 8.38039 2.62646C8.34041 2.5884 8.31258 2.56036 8.29445 2.5415L8.28371 2.53076C8.28614 2.53385 8.29271 2.54182 8.30031 2.55322C8.2566 2.48766 8.18476 2.41006 8.12648 2.34814C8.11501 2.33596 8.1062 2.32518 8.09914 2.31689C8.09391 2.31076 8.08988 2.30641 8.08742 2.30322C8.0682 2.25783 8.04629 2.2057 8.02003 2.1499C8.00304 2.11377 7.99591 2.08702 7.99269 2.06982C7.98739 2.04142 7.98294 2.00032 7.98293 1.94385C7.98293 1.77339 8.04109 1.61695 8.18898 1.4585L8.188 1.45752C8.22774 1.41643 8.30093 1.33844 8.39503 1.23389C8.50486 1.11186 8.57386 1.03748 8.60793 1.00342C8.63671 0.974633 8.69826 0.919548 8.80226 0.831543C8.89497 0.753097 8.94908 0.71907 8.97023 0.708496C9.01808 0.684583 9.08574 0.656192 9.17726 0.624512C9.23301 0.605218 9.28317 0.597168 9.32961 0.597168ZM2.34132 8.10498L2.31691 8.09424L2.31496 8.09326C2.32406 8.09706 2.33276 8.10155 2.34132 8.10498ZM8.09425 2.31689C8.09723 2.32278 8.10094 2.33117 8.105 2.34131C8.10157 2.33274 8.09707 2.32404 8.09328 2.31494L8.09425 2.31689Z" stroke="white"/>
</g>
<defs>
<clipPath id="clip0_1_26">
<rect width="21.38" height="21.38" fill="white"/>
</clipPath>
</defs>
</svg>
