<svg width="15" height="15" viewBox="0 0 15 15" fill="none" xmlns="http://www.w3.org/2000/svg">
<path d="M10.9821 7.50002C11.9057 7.50002 12.7914 7.86689 13.4444 8.51992C14.0974 9.17294 14.4643 10.0586 14.4643 10.9822C14.4643 11.9057 14.0974 12.7914 13.4444 13.4444C12.7914 14.0974 11.9057 14.4643 10.9821 14.4643C10.0586 14.4643 9.17293 14.0974 8.5199 13.4444C7.86687 12.7914 7.5 11.9057 7.5 10.9822C7.5 10.0586 7.86687 9.17294 8.5199 8.51992C9.17293 7.86689 10.0586 7.50002 10.9821 7.50002ZM1.095 2.18413C0.94768 1.63234 1.51447 1.16038 2.03036 1.40573L13.5466 6.89681C14.002 7.11377 14.0486 7.71484 13.6886 8.0127C13.0968 7.4735 12.3574 7.12339 11.5653 7.00727C10.7732 6.89116 9.96443 7.01433 9.24278 7.36099C8.52114 7.70765 7.91952 8.26199 7.51508 8.9529C7.11064 9.64382 6.92182 10.4398 6.97286 11.2388L2.03036 13.5959C1.51447 13.8418 0.948216 13.3709 1.095 12.8191L2.175 8.78038C2.20219 8.67898 2.25858 8.5878 2.33716 8.51818C2.41573 8.44856 2.51303 8.40356 2.61697 8.38877L7.91089 7.63234C8.06411 7.61038 8.06411 7.38859 7.91089 7.36663L2.61589 6.61073C2.51206 6.59585 2.41487 6.5508 2.3364 6.48119C2.25793 6.41157 2.20162 6.32045 2.17447 6.21913L1.095 2.18413ZM10.9821 8.83931C10.9111 8.83931 10.843 8.86753 10.7927 8.91776C10.7425 8.96799 10.7143 9.03612 10.7143 9.10716V10.9822C10.7143 11.0532 10.7425 11.1213 10.7927 11.1716C10.843 11.2218 10.9111 11.25 10.9821 11.25H12.5893C12.6603 11.25 12.7285 11.2218 12.7787 11.1716C12.8289 11.1213 12.8571 11.0532 12.8571 10.9822C12.8571 10.9111 12.8289 10.843 12.7787 10.7928C12.7285 10.7425 12.6603 10.7143 12.5893 10.7143H11.25V9.10716C11.25 9.03612 11.2218 8.96799 11.1715 8.91776C11.1213 8.86753 11.0532 8.83931 10.9821 8.83931Z" fill="#1A1A1A"/>
</svg>
