<svg width="24" height="24" viewBox="0 0 24 24" fill="none" xmlns="http://www.w3.org/2000/svg">
<path d="M7 15.0001H10.429M7 11.0001H15M13.5 2.00006H8.5C8.30302 2.00006 8.10796 2.03886 7.92597 2.11424C7.74399 2.18962 7.57863 2.30011 7.43934 2.4394C7.30005 2.57869 7.18956 2.74405 7.11418 2.92604C7.0388 3.10802 7 3.30308 7 3.50006C7 3.69704 7.0388 3.8921 7.11418 4.07409C7.18956 4.25607 7.30005 4.42143 7.43934 4.56072C7.57863 4.70001 7.74399 4.8105 7.92597 4.88588C8.10796 4.96126 8.30302 5.00006 8.5 5.00006H13.5C13.8978 5.00006 14.2794 4.84203 14.5607 4.56072C14.842 4.27942 15 3.89789 15 3.50006C15 3.10224 14.842 2.72071 14.5607 2.4394C14.2794 2.1581 13.8978 2.00006 13.5 2.00006Z" stroke="black" stroke-width="1.5" stroke-linecap="round" stroke-linejoin="round"/>
<path d="M19 12.0001V9.48308C19 6.65408 19 5.24008 18.121 4.36108C17.48 3.72108 16.554 3.54708 15 3.50008M11 22.0001H9C6.172 22.0001 4.757 22.0001 3.879 21.1201C3 20.2431 3 18.8291 3 16.0001V9.48208C3 6.65308 3 5.23908 3.879 4.36008C4.52 3.72008 5.447 3.54608 6.999 3.49908M15.737 21.6531L14 22.0001L14.347 20.2631C14.417 19.9111 14.591 19.5871 14.846 19.3331L18.911 15.2671C18.9955 15.1824 19.0959 15.1153 19.2064 15.0694C19.3169 15.0236 19.4354 15 19.555 15C19.6746 15 19.7931 15.0236 19.9036 15.0694C20.0141 15.1153 20.1145 15.1824 20.199 15.2671L20.733 15.8011C20.8177 15.8856 20.8848 15.986 20.9307 16.0965C20.9765 16.207 21.0001 16.3255 21.0001 16.4451C21.0001 16.5647 20.9765 16.6832 20.9307 16.7937C20.8848 16.9042 20.8177 17.0046 20.733 17.0891L16.668 21.1541C16.4146 21.4098 16.0903 21.5836 15.737 21.6531Z" stroke="black" stroke-width="1.5" stroke-linecap="round" stroke-linejoin="round"/>
</svg>
