<svg width="17" height="17" viewBox="0 0 17 17" fill="none" xmlns="http://www.w3.org/2000/svg">
<path d="M8.50008 1.41669C4.59008 1.41669 1.41675 4.59002 1.41675 8.50002C1.41675 12.41 4.59008 15.5834 8.50008 15.5834C12.4101 15.5834 15.5834 12.41 15.5834 8.50002C15.5834 4.59002 12.4101 1.41669 8.50008 1.41669ZM4.95842 9.56252C4.3705 9.56252 3.89591 9.08794 3.89591 8.50002C3.89591 7.9121 4.3705 7.43752 4.95842 7.43752C5.54633 7.43752 6.02092 7.9121 6.02092 8.50002C6.02092 9.08794 5.54633 9.56252 4.95842 9.56252ZM8.50008 9.56252C7.91217 9.56252 7.43758 9.08794 7.43758 8.50002C7.43758 7.9121 7.91217 7.43752 8.50008 7.43752C9.088 7.43752 9.56258 7.9121 9.56258 8.50002C9.56258 9.08794 9.088 9.56252 8.50008 9.56252ZM12.0417 9.56252C11.4538 9.56252 10.9792 9.08794 10.9792 8.50002C10.9792 7.9121 11.4538 7.43752 12.0417 7.43752C12.6297 7.43752 13.1042 7.9121 13.1042 8.50002C13.1042 9.08794 12.6297 9.56252 12.0417 9.56252Z" fill="#F7630C"/>
</svg>
