<svg width="18" height="18" viewBox="0 0 18 18" fill="none" xmlns="http://www.w3.org/2000/svg">
<path d="M13.5 10.125H13.875C14.5823 10.125 14.9355 10.125 15.1553 9.90525C15.375 9.6855 15.375 9.33225 15.375 8.625V7.875C15.375 6.4605 15.375 5.754 14.9355 5.3145C14.496 4.875 13.7895 4.875 12.375 4.875H5.625C4.2105 4.875 3.504 4.875 3.0645 5.3145C2.625 5.754 2.625 6.4605 2.625 7.875V9.375C2.625 9.72825 2.625 9.90525 2.7345 10.0155C2.84475 10.125 3.02175 10.125 3.375 10.125H4.5" stroke="#1A1A1A" stroke-width="0.75"/>
<path d="M4.875 14.8545V8.625C4.875 7.91775 4.875 7.5645 5.09475 7.34475C5.3145 7.125 5.66775 7.125 6.375 7.125H11.625C12.3323 7.125 12.6855 7.125 12.9053 7.34475C13.125 7.5645 13.125 7.91775 13.125 8.625V14.8545C13.125 15.0922 13.125 15.2108 13.047 15.267C12.969 15.3233 12.8565 15.2857 12.6315 15.2107L11.0055 14.6685C10.9645 14.6503 10.9205 14.6397 10.8758 14.637C10.831 14.6422 10.7876 14.6554 10.7475 14.676L9.1395 15.3195C9.09614 15.3422 9.04875 15.3562 9 15.3608C8.95125 15.3562 8.90386 15.3422 8.8605 15.3195L7.2525 14.676C7.1895 14.6505 7.158 14.6385 7.125 14.637C7.092 14.6355 7.059 14.6467 6.9945 14.6685L5.3685 15.2107C5.1435 15.2857 5.031 15.3233 4.953 15.267C4.875 15.2108 4.875 15.0922 4.875 14.8545Z" stroke="#1A1A1A" stroke-width="0.75"/>
<path d="M7.125 10.125H10.125M7.125 12.375H10.875" stroke="#1A1A1A" stroke-width="0.75" stroke-linecap="round"/>
<path d="M13.125 4.875V4.575C13.125 3.30225 13.125 2.6655 12.7297 2.27025C12.3345 1.875 11.6977 1.875 10.425 1.875H7.575C6.30225 1.875 5.6655 1.875 5.27025 2.27025C4.875 2.6655 4.875 3.30225 4.875 4.575V4.875" stroke="#1A1A1A" stroke-width="0.75"/>
</svg>
