<svg width="15" height="15" viewBox="0 0 15 15" fill="none" xmlns="http://www.w3.org/2000/svg">
<path d="M3.125 13.125C2.78125 13.125 2.48708 13.0027 2.2425 12.7581C1.99792 12.5135 1.87542 12.2192 1.875 11.875V3.125C1.875 2.78125 1.9975 2.48708 2.2425 2.2425C2.4875 1.99792 2.78167 1.87542 3.125 1.875H6.875V13.125H3.125ZM8.125 13.125V7.5H13.125V11.875C13.125 12.2188 13.0027 12.5131 12.7581 12.7581C12.5135 13.0031 12.2192 13.1254 11.875 13.125H8.125ZM8.125 6.25V1.875H11.875C12.2188 1.875 12.5131 1.9975 12.7581 2.2425C13.0031 2.4875 13.1254 2.78167 13.125 3.125V6.25H8.125Z" fill="#1A1A1A"/>
</svg>
