<svg width="15" height="15" viewBox="0 0 15 15" fill="none" xmlns="http://www.w3.org/2000/svg">
<path d="M6.51562 9.53125H8.45312L8.6875 10.25C8.72917 10.3646 8.79688 10.4558 8.89062 10.5237C8.98438 10.5917 9.08854 10.6254 9.20312 10.625C9.40104 10.625 9.55479 10.5444 9.66438 10.3831C9.77396 10.2219 9.79729 10.0525 9.73438 9.875L8.26562 5.73438C8.22396 5.61979 8.15104 5.52604 8.04688 5.45312C7.94271 5.38021 7.82812 5.34375 7.70312 5.34375H7.29688C7.17188 5.34375 7.05729 5.38021 6.95312 5.45312C6.84896 5.52604 6.77604 5.61979 6.73438 5.73438L5.25 9.90625C5.1875 10.0833 5.21104 10.2475 5.32062 10.3988C5.43021 10.55 5.57854 10.6254 5.76563 10.625C5.88021 10.625 5.98438 10.5912 6.07812 10.5237C6.17188 10.4562 6.23958 10.365 6.28125 10.25L6.51562 9.53125ZM6.8125 8.625L7.5 6.5625L8.17188 8.625H6.8125ZM6.25 1.875C6.07292 1.875 5.92458 1.815 5.805 1.695C5.68542 1.575 5.62542 1.42667 5.625 1.25C5.62458 1.07333 5.68458 0.925 5.805 0.805C5.92542 0.685 6.07375 0.625 6.25 0.625H8.75C8.92708 0.625 9.07563 0.685 9.19563 0.805C9.31563 0.925 9.37542 1.07333 9.375 1.25C9.37458 1.42667 9.31458 1.57521 9.195 1.69563C9.07542 1.81604 8.92708 1.87583 8.75 1.875H6.25ZM7.5 13.75C6.72917 13.75 6.0025 13.6017 5.32 13.305C4.6375 13.0083 4.04125 12.6046 3.53125 12.0938C3.02125 11.5829 2.61771 10.9865 2.32063 10.3044C2.02354 9.62229 1.875 8.89583 1.875 8.125C1.875 7.35417 2.02354 6.6275 2.32063 5.945C2.61771 5.2625 3.02125 4.66625 3.53125 4.15625C4.04125 3.64625 4.63771 3.24271 5.32062 2.94562C6.00354 2.64854 6.73 2.5 7.5 2.5C8.14583 2.5 8.76563 2.60417 9.35938 2.8125C9.95312 3.02083 10.5104 3.32292 11.0312 3.71875L11.4688 3.28125C11.5833 3.16667 11.7292 3.10938 11.9062 3.10938C12.0833 3.10938 12.2292 3.16667 12.3438 3.28125C12.4583 3.39583 12.5156 3.54167 12.5156 3.71875C12.5156 3.89583 12.4583 4.04167 12.3438 4.15625L11.9062 4.59375C12.3021 5.11458 12.6042 5.67188 12.8125 6.26562C13.0208 6.85937 13.125 7.47917 13.125 8.125C13.125 8.89583 12.9765 9.6225 12.6794 10.305C12.3823 10.9875 11.9788 11.5837 11.4688 12.0938C10.9587 12.6038 10.3623 13.0075 9.67938 13.305C8.99646 13.6025 8.27 13.7508 7.5 13.75Z" fill="#1A1A1A"/>
</svg>
