<svg width="15" height="15" viewBox="0 0 15 15" fill="none" xmlns="http://www.w3.org/2000/svg">
<path d="M13.125 6.94375V3.125C13.125 2.79348 12.9933 2.47554 12.7589 2.24112C12.5245 2.0067 12.2065 1.875 11.875 1.875H9.2625C9 1.15 8.3125 0.625 7.5 0.625C6.6875 0.625 6 1.15 5.7375 1.875H3.125C2.4375 1.875 1.875 2.4375 1.875 3.125V11.875C1.875 12.2065 2.0067 12.5245 2.24112 12.7589C2.47554 12.9933 2.79348 13.125 3.125 13.125H6.94375C7.73125 13.9 8.80625 14.375 10 14.375C12.4187 14.375 14.375 12.4187 14.375 10C14.375 8.80625 13.9 7.73125 13.125 6.94375ZM7.5 1.875C7.84375 1.875 8.125 2.15625 8.125 2.5C8.125 2.84375 7.84375 3.125 7.5 3.125C7.15625 3.125 6.875 2.84375 6.875 2.5C6.875 2.15625 7.15625 1.875 7.5 1.875ZM3.75 4.375H11.25V5.625H3.75V4.375ZM5.675 10.625H3.75V9.375H5.675C5.64375 9.58125 5.625 9.7875 5.625 10C5.625 10.2125 5.64375 10.4187 5.675 10.625ZM3.75 8.125V6.875H6.94375C6.5625 7.23125 6.275 7.65625 6.05 8.125H3.75ZM10 13.125C8.275 13.125 6.875 11.725 6.875 10C6.875 8.275 8.275 6.875 10 6.875C11.725 6.875 13.125 8.275 13.125 10C13.125 11.725 11.725 13.125 10 13.125ZM10.3125 10.1562L12.1 11.2125L11.6313 11.975L9.375 10.625V7.5H10.3125V10.1562Z" fill="#1A1A1A"/>
</svg>
