<svg width="20" height="20" viewBox="0 0 20 20" fill="none" xmlns="http://www.w3.org/2000/svg">
<path d="M7.58916 4.53999C8.0875 3.08166 10.1025 3.03749 10.6933 4.40749L10.7433 4.54082L11.4158 6.50749C11.5699 6.95852 11.819 7.37125 12.1462 7.71784C12.4734 8.06444 12.8711 8.33683 13.3125 8.51666L13.4933 8.58416L15.46 9.25582C16.9183 9.75416 16.9625 11.7692 15.5933 12.36L15.46 12.41L13.4933 13.0825C13.0421 13.2365 12.6293 13.4855 12.2825 13.8127C11.9358 14.1399 11.6632 14.5377 11.4833 14.9792L11.4158 15.1592L10.7442 17.1267C10.2458 18.585 8.23083 18.6292 7.64083 17.26L7.58916 17.1267L6.9175 15.16C6.76348 14.7088 6.51447 14.2959 6.18728 13.9492C5.86009 13.6024 5.46232 13.3299 5.02083 13.15L4.84083 13.0825L2.87416 12.4108C1.415 11.9125 1.37083 9.89749 2.74083 9.30749L2.87416 9.25582L4.84083 8.58416C5.29186 8.43004 5.70459 8.18098 6.05118 7.8538C6.39778 7.52661 6.67017 7.1289 6.85 6.68749L6.9175 6.50749L7.58916 4.53999ZM9.16666 5.07832L8.495 7.04499C8.26032 7.73274 7.87855 8.36108 7.37628 8.88624C6.874 9.4114 6.26328 9.82076 5.58666 10.0858L5.37833 10.1617L3.41166 10.8333L5.37833 11.505C6.06608 11.7397 6.69442 12.1214 7.21958 12.6237C7.74474 13.126 8.1541 13.7367 8.41916 14.4133L8.495 14.6217L9.16666 16.5883L9.83833 14.6217C10.073 13.9339 10.4548 13.3056 10.957 12.7804C11.4593 12.2552 12.07 11.8459 12.7467 11.5808L12.955 11.5058L14.9217 10.8333L12.955 10.1617C12.2672 9.92698 11.6389 9.54521 11.1137 9.04294C10.5886 8.54066 10.1792 7.92995 9.91416 7.25332L9.83916 7.04499L9.16666 5.07832ZM15.8333 1.66666C15.9892 1.66666 16.142 1.71039 16.2743 1.79288C16.4066 1.87538 16.5131 1.99333 16.5817 2.13332L16.6217 2.23082L16.9133 3.08582L17.7692 3.37749C17.9254 3.43057 18.0624 3.52884 18.1627 3.65984C18.263 3.79084 18.3222 3.94867 18.3327 4.11334C18.3433 4.27801 18.3047 4.4421 18.2218 4.58481C18.139 4.72753 18.0157 4.84244 17.8675 4.91499L17.7692 4.95499L16.9142 5.24666L16.6225 6.10249C16.5693 6.25868 16.471 6.39557 16.3399 6.49582C16.2089 6.59606 16.051 6.65515 15.8864 6.66559C15.7217 6.67603 15.5576 6.63736 15.415 6.55447C15.2723 6.47158 15.1575 6.34821 15.085 6.19999L15.045 6.10249L14.7533 5.24749L13.8975 4.95582C13.7413 4.90274 13.6043 4.80448 13.504 4.67348C13.4036 4.54248 13.3445 4.38464 13.3339 4.21997C13.3234 4.0553 13.362 3.89121 13.4448 3.7485C13.5276 3.60579 13.651 3.49087 13.7992 3.41832L13.8975 3.37832L14.7525 3.08666L15.0442 2.23082C15.1004 2.06618 15.2067 1.92325 15.3482 1.82207C15.4897 1.7209 15.6594 1.66655 15.8333 1.66666Z" fill="black"/>
</svg>
