<svg width="15" height="15" viewBox="0 0 15 15" fill="none" xmlns="http://www.w3.org/2000/svg">
<path d="M11.25 2.24998V14.25H15V2.24998H11.25ZM12 10.5H14.25V11.25H12V10.5ZM12 8.24998H14.25V8.99998H12V8.24998ZM6.74995 2.24998V14.25H10.5V2.24998H6.74995ZM7.49995 10.5H9.74995V11.25H7.49995V10.5ZM7.49995 8.24998H9.74995V8.99998H7.49995V8.24998ZM3.07495 1.72498L0.0749512 13.2L3.67495 14.175L6.74995 2.62498L3.07495 1.72498ZM1.72495 9.82498L3.89995 10.425L3.67495 11.175L1.49995 10.575L1.72495 9.82498ZM2.24995 7.64998L4.42495 8.24998L4.27495 8.99998L2.09995 8.39998L2.24995 7.64998Z" fill="#1A1A1A"/>
</svg>
