<svg width="18" height="18" viewBox="0 0 18 18" fill="none" xmlns="http://www.w3.org/2000/svg">
<path d="M5.97754 7.41457H12.0225M5.97754 10.5856H10.2885M9.00004 15.9376C10.5071 15.9372 11.973 15.4462 13.1762 14.5387C14.3793 13.6312 15.2543 12.3566 15.6686 10.9076C16.083 9.45865 16.0143 7.91417 15.4729 6.50774C14.9315 5.10131 13.9468 3.90943 12.6678 3.11235C11.3888 2.31526 9.88506 1.95634 8.38395 2.08985C6.88284 2.22335 5.46602 2.84204 4.34777 3.85233C3.22952 4.86262 2.47066 6.20957 2.18596 7.68947C1.90126 9.16938 2.1062 10.7017 2.76979 12.0548C2.85079 12.2198 2.87779 12.4058 2.83654 12.5843L2.22454 15.2363C2.20728 15.3107 2.20926 15.3883 2.23029 15.4618C2.25131 15.5352 2.29069 15.6021 2.34471 15.6561C2.39873 15.7102 2.46562 15.7495 2.53907 15.7706C2.61252 15.7916 2.69011 15.7936 2.76454 15.7763L5.41579 15.1636C5.59479 15.1244 5.78184 15.1482 5.94529 15.2311C6.89583 15.6979 7.94106 15.9396 9.00004 15.9376Z" stroke="white" stroke-width="1.125" stroke-linecap="round" stroke-linejoin="round"/>
</svg>
