<svg width="15" height="15" viewBox="0 0 15 15" fill="none" xmlns="http://www.w3.org/2000/svg">
<path fill-rule="evenodd" clip-rule="evenodd" d="M5.08493 1.00187C5.15075 1.10723 5.17206 1.23441 5.14417 1.35546C5.11627 1.47652 5.04147 1.58156 4.93618 1.64749L2.43618 3.20999C2.33076 3.27588 2.20348 3.29719 2.08234 3.26924C1.96121 3.24129 1.85614 3.16635 1.79025 3.06093C1.72436 2.95551 1.70305 2.82823 1.731 2.70709C1.75895 2.58595 1.83389 2.48088 1.93931 2.41499L4.43931 0.852493C4.54474 0.78673 4.67198 0.765523 4.79304 0.793534C4.91411 0.821544 5.0191 0.896479 5.08493 1.00187ZM9.91493 1.00187C9.94754 0.9496 9.99012 0.90427 10.0403 0.86847C10.0904 0.832671 10.1471 0.807103 10.2071 0.79323C10.2671 0.779357 10.3293 0.777451 10.39 0.787619C10.4508 0.797788 10.509 0.819833 10.5612 0.852493L13.0612 2.41499C13.1666 2.48088 13.2415 2.58595 13.2695 2.70709C13.2974 2.82823 13.2761 2.95551 13.2102 3.06093C13.1776 3.11313 13.135 3.15839 13.0849 3.19414C13.0348 3.22988 12.9781 3.2554 12.9181 3.26924C12.797 3.29719 12.6697 3.27588 12.5643 3.20999L10.0643 1.64749C9.95892 1.58166 9.88398 1.47667 9.85597 1.3556C9.82796 1.23454 9.84917 1.1073 9.91493 1.00187ZM7.49993 13.75C8.23862 13.75 8.97007 13.6045 9.65253 13.3218C10.335 13.0391 10.9551 12.6248 11.4774 12.1025C11.9997 11.5801 12.4141 10.96 12.6968 10.2776C12.9794 9.59513 13.1249 8.86368 13.1249 8.12499C13.1249 7.38631 12.9794 6.65486 12.6968 5.9724C12.4141 5.28994 11.9997 4.66985 11.4774 4.14752C10.9551 3.62519 10.335 3.21085 9.65253 2.92817C8.97007 2.64549 8.23862 2.49999 7.49993 2.49999C6.00809 2.49999 4.57735 3.09263 3.52246 4.14752C2.46757 5.20241 1.87493 6.63315 1.87493 8.12499C1.87493 9.61684 2.46757 11.0476 3.52246 12.1025C4.57735 13.1574 6.00809 13.75 7.49993 13.75ZM5.62493 6.71874C5.50061 6.71874 5.38139 6.66936 5.29348 6.58145C5.20557 6.49354 5.15618 6.37431 5.15618 6.24999C5.15618 6.12567 5.20557 6.00644 5.29348 5.91854C5.38139 5.83063 5.50061 5.78124 5.62493 5.78124H9.37493C9.46758 5.78132 9.55813 5.80886 9.63514 5.86037C9.71215 5.91189 9.77217 5.98506 9.80761 6.07067C9.84306 6.15627 9.85234 6.25045 9.83429 6.34133C9.81623 6.4322 9.77166 6.51569 9.70618 6.58124L6.75618 9.53124H9.37493C9.49925 9.53124 9.61848 9.58063 9.70639 9.66854C9.7943 9.75644 9.84368 9.87567 9.84368 9.99999C9.84368 10.1243 9.7943 10.2435 9.70639 10.3314C9.61848 10.4194 9.49925 10.4687 9.37493 10.4687H5.62493C5.53228 10.4687 5.44174 10.4411 5.36473 10.3896C5.28772 10.3381 5.2277 10.2649 5.19225 10.1793C5.15681 10.0937 5.14753 9.99953 5.16558 9.90866C5.18363 9.81778 5.22821 9.7343 5.29368 9.66874L8.24368 6.71874H5.62493Z" fill="#1A1A1A"/>
</svg>
